Coordinates
version=1
nRows=18
nColumns=22
inDegrees=yes

Units are S.I. units (second, meters, Newtons, ...)
If the header above contains a line with 'inDegrees', this indicates whether rotational values are in degrees (yes) or radians (no).

endheader
time	pelvis_tilt	pelvis_list	pelvis_rotation	pelvis_tx	pelvis_ty	pelvis_tz	hip_flexion_r	hip_adduction_r	hip_rotation_r	knee_angle_r	ankle_angle_r	subtalar_angle_r	hip_flexion_l	hip_adduction_l	hip_rotation_l	knee_angle_l	ankle_angle_l	subtalar_angle_l	lumbar_extension	lumbar_bending	lumbar_rotation
      0.01000000	      0.46679984	     -1.38092480	    -30.23939761	     -1.04281318	      0.91060000	     -0.36974467	     -3.95248643	      1.35731704	      1.94817609	     -3.85291220	     13.88163668	      0.09287218	      1.37713252	     -3.95740612	    -14.38792083	    -16.94694986	     15.63341530	     -0.73957885	     -5.12612180	     -1.64048515	      5.11266413
      0.02000000	      0.46823593	     -1.38202439	    -30.22249003	     -1.04270229	      0.91059970	     -0.36977028	     -3.95977125	      1.35576279	      1.95260416	     -3.85925140	     13.88284881	      0.09053588	      1.37080502	     -3.95425986	    -14.38909024	    -16.94679609	     15.63264507	     -0.74091097	     -5.11876859	     -1.63421535	      5.11662619
      0.03000000	      0.46954780	     -1.38297536	    -30.20259060	     -1.04257846	      0.91059513	     -0.36979908	     -3.96750419	      1.35353015	      1.95528364	     -3.86646434	     13.88399665	      0.08793255	      1.36371845	     -3.95119187	    -14.38970859	    -16.94451794	     15.63240003	     -0.74219056	     -5.11177140	     -1.62845031	      5.12216470
      0.04000000	      0.52607988	     -1.40165198	    -30.16035902	     -1.04239207	      0.91067888	     -0.36984722	     -4.04095420	      1.33831329	      1.89102206	     -3.87521245	     13.91694745	      0.00005992	      1.26497640	     -3.91880164	    -14.31805242	    -16.88047204	     15.63125609	     -0.78065751	     -5.17147425	     -1.63648615	      5.11192340
      0.05000000	      0.52688689	     -1.40136031	    -30.14020923	     -1.04225546	      0.91067084	     -0.36987676	     -4.04808823	      1.33548670	      1.89370346	     -3.88164370	     13.91698434	     -0.00105926	      1.26018321	     -3.91453881	    -14.32055203	    -16.88072025	     15.63108965	     -0.78134896	     -5.16184206	     -1.63074088	      5.11850947
      0.06000000	      0.52741219	     -1.40133973	    -30.11822727	     -1.04211579	      0.91066072	     -0.36990349	     -4.05490459	      1.33281992	      1.89459870	     -3.88868445	     13.91778457	     -0.00232207	      1.25468771	     -3.91083473	    -14.32134489	    -16.87965035	     15.63153406	     -0.78195113	     -5.15322523	     -1.62641939	      5.12622198
      0.07000000	      0.53522272	     -1.40509603	    -30.08616404	     -1.04195338	      0.91066366	     -0.36993032	     -4.07169871	      1.33111493	      1.83883303	     -3.89589861	     13.93981244	     -0.01961631	      1.22904682	     -3.89992912	    -14.27687489	    -16.85481783	     15.64145717	     -0.78791431	     -5.15291076	     -1.62743428	      5.15435634
      0.08000000	      0.53645767	     -1.40537226	    -30.06644109	     -1.04182195	      0.91065427	     -0.36995277	     -4.07746229	      1.32795244	      1.84147623	     -3.90498524	     13.94040295	     -0.02057312	      1.22384216	     -3.89657309	    -14.27712718	    -16.85548220	     15.64183723	     -0.78845276	     -5.14688933	     -1.62410117	      5.15582193
      0.09000000	      0.53692500	     -1.40639665	    -30.04681075	     -1.04169661	      0.91064685	     -0.36997079	     -4.08274018	      1.32633830	      1.84182907	     -3.91363271	     13.94188948	     -0.02170044	      1.21867635	     -3.89458278	    -14.27541399	    -16.85533092	     15.64270159	     -0.78894350	     -5.14223311	     -1.62304595	      5.15871936
      0.10000000	      0.55461551	     -1.42038227	    -30.00115137	     -1.04155836	      0.91066636	     -0.37002882	     -4.09837037	      1.33015734	      1.75761247	     -3.94989908	     13.98066801	     -0.04447442	      1.18811481	     -3.88627611	    -14.19034757	    -16.83978958	     15.66134670	     -0.79615388	     -5.16814574	     -1.62048395	      5.15207612
      0.11000000	      0.55344452	     -1.42066844	    -29.98454481	     -1.04143471	      0.91065669	     -0.37004744	     -4.10329070	      1.32811198	      1.75929098	     -3.95539971	     13.98090295	     -0.04526372	      1.18457187	     -3.88426065	    -14.19220769	    -16.83927161	     15.66143984	     -0.79683430	     -5.16266339	     -1.61960174	      5.15253629
      0.12000000	      0.55191997	     -1.42138383	    -29.96827693	     -1.04131345	      0.91064826	     -0.37006876	     -4.10750165	      1.32687120	      1.75928472	     -3.96110204	     13.98170952	     -0.04637150	      1.18083248	     -3.88241397	    -14.19214251	    -16.83815574	     15.66206311	     -0.79755634	     -5.15825944	     -1.61904861	      5.15413890
      0.13000000	      0.55005145	     -1.42214654	    -29.95254631	     -1.04119237	      0.91064010	     -0.37009610	     -4.11097539	      1.32575342	      1.75775506	     -3.96720281	     13.98304426	     -0.04786145	      1.17692141	     -3.88000416	    -14.19029166	    -16.83613241	     15.66325100	     -0.79838563	     -5.15489426	     -1.61775088	      5.15649113
      0.14000000	      0.55351650	     -1.42525342	    -29.92217304	     -1.04104739	      0.91064155	     -0.37014882	     -4.11089521	      1.32500702	      1.69335513	     -3.99449975	     14.00811776	     -0.07208372	      1.15431769	     -3.86596523	    -14.12436156	    -16.80455954	     15.68098653	     -0.81167061	     -5.15874995	     -1.61516778	      5.14746348
      0.15000000	      0.55096811	     -1.42462639	    -29.90857023	     -1.04093530	      0.91063020	     -0.37018254	     -4.11313687	      1.32278816	      1.69550591	     -3.99855076	     14.00861591	     -0.07302570	      1.15309452	     -3.86242261	    -14.12568667	    -16.80398183	     15.68081545	     -0.81273971	     -5.15852180	     -1.61401386	      5.14854552
      0.16000000	      0.54794154	     -1.42372186	    -29.89645903	     -1.04082459	      0.91061928	     -0.37021865	     -4.11413197	      1.32035766	      1.69657660	     -4.00290193	     14.00969789	     -0.07434521	      1.15117980	     -3.85808462	    -14.12544879	    -16.80148284	     15.68107270	     -0.81403622	     -5.15878364	     -1.61242179	      5.14978620
      0.17000000	      0.54447378	     -1.42228206	    -29.88481995	     -1.04071509	      0.91060660	     -0.37025896	     -4.11389071	      1.31738378	      1.69687889	     -4.00781681	     14.01150524	     -0.07602685	      1.14899798	     -3.85250061	    -14.12393241	    -16.79624677	     15.68176714	     -0.81556827	     -5.15993256	     -1.61022411	      5.15149997
      0.18000000	      0.54069707	     -1.41994726	    -29.87392181	     -1.04060702	      0.91059359	     -0.37030327	     -4.11202107	      1.31347686	      1.69620712	     -4.01347159	     14.01449391	     -0.07821614	      1.14613426	     -3.84521698	    -14.12066391	    -16.78770527	     15.68297360	     -0.81749551	     -5.16204079	     -1.60787484	      5.15372356
